<?xml version="1.0" encoding="UTF-8"?>
<svg id="Calque_2" data-name="Calque 2" xmlns="http://www.w3.org/2000/svg" viewBox="0 0 431.02 116.02">
  <defs>
    <style>
      .cls-1 {
        fill: #1d1d1b;
      }
    </style>
  </defs>
  <g id="Calque_1-2" data-name="Calque 1">
    <g>
      <g>
        <polygon class="cls-1" points="58 0 58 58 0 116.01 0 0 58 0"/>
        <polygon class="cls-1" points="58 116.02 58 58 116.02 116.02 58 116.02"/>
        <polygon class="cls-1" points="116.02 58 58 0 116.02 0 116.02 58"/>
      </g>
      <g>
        <path class="cls-1" d="M350.52.93l-11.89,18.22-5.21,8.36h-1.02l-5.2-8.36-.26-.41h-17.02l15.79,23.83v20.63h14.03v-20.54L367.8.93h-17.28Z"/>
        <path class="cls-1" d="M371.08,63.2V.94h34.39c15.33,0,24.07,6.78,24.07,18.68,0,10.13-5.85,16.17-17.57,17.29v.74c5.58,1.49,7.71,4.46,10.04,8.83l9.01,16.73h-16.17l-8.55-16.17c-2.51-4.83-4.83-6.41-12.08-6.41h-9.2v22.58h-13.94ZM385.02,30.12h20.35c6.6,0,9.57-1.86,9.57-8.36,0-6.13-2.97-8.27-9.57-8.27h-20.35v16.64Z"/>
        <path class="cls-1" d="M182.78.93h-19.89l-27.23,62.27h15.61l21.01-49.53h1.02l3.81,9.66,5.86,13.56h-10.03v12.55h15.43l5.86,13.76h15.98L182.78.93Z"/>
        <path class="cls-1" d="M213.45,63.2V.94h13.94v49.72h37.08v12.55h-51.02Z"/>
        <path class="cls-1" d="M272.96,63.2V13.48h-23.14V.94h60.22v12.55h-23.14v49.72h-13.94Z"/>
      </g>
      <g>
        <path class="cls-1" d="M136.53,86.98c0-5.13,3.39-8.47,8.2-8.47,4.25,0,7.46,2.38,7.46,6.11v.29h-1.89v-.29c0-2.8-1.94-4.42-5.55-4.42-4.1,0-6.38,2.31-6.38,6.78s2.28,6.78,6.38,6.78c3.61,0,5.55-1.62,5.55-4.42v-.29h1.89v.29c0,3.73-3.19,6.11-7.46,6.11-4.81,0-8.2-3.34-8.2-8.47Z"/>
        <path class="cls-1" d="M153.89,89.14c0-3.68,2.63-6.31,6.58-6.31s6.6,2.63,6.6,6.31-2.63,6.31-6.6,6.31-6.58-2.63-6.58-6.31ZM165.35,89.14c0-2.92-1.55-4.74-4.89-4.74s-4.86,1.82-4.86,4.74,1.52,4.74,4.86,4.74,4.89-1.79,4.89-4.74Z"/>
        <path class="cls-1" d="M169.38,95.2v-12.13h1.57v3.81h.12c.42-2.06,2.14-4.05,5.16-4.05,3.41,0,5.11,2.43,5.11,5.3v7.07h-1.74v-6.83c0-2.5-1.2-3.95-3.98-3.95-2.95,0-4.49,1.79-4.49,4.91v5.87h-1.74Z"/>
        <path class="cls-1" d="M183.62,91.15v-.05h1.74v.15c0,2.04,1.2,2.75,4.17,2.75,2.73,0,3.66-.64,3.66-2.04,0-1.28-.76-1.69-2.77-2.01l-3.24-.47c-2.21-.29-3.61-1.15-3.61-3.17,0-2.14,2.04-3.49,5.38-3.49s5.75,1.47,5.75,4.32v.05h-1.74v-.12c0-1.82-.96-2.8-4.05-2.8-2.55,0-3.61.61-3.61,2.06,0,1.25.64,1.69,2.65,1.99l2.97.42c2.6.37,4,1.25,4,3.22,0,2.28-2.26,3.49-5.4,3.49-3.73,0-5.89-1.5-5.89-4.3Z"/>
        <path class="cls-1" d="M196.59,89.14c0-3.68,2.46-6.31,6.36-6.31,3.56,0,6.09,2.06,6.09,5.67,0,.44-.05.81-.12,1.13h-10.68c.1,2.73,1.5,4.37,4.71,4.37,2.85,0,4.17-1.06,4.17-2.82v-.17h1.74v.17c0,2.53-2.5,4.27-5.89,4.27-3.9,0-6.38-2.46-6.38-6.31ZM198.24,88.55h9.16v-.37c0-2.55-1.62-3.9-4.47-3.9-3.14,0-4.57,1.62-4.69,4.27Z"/>
        <path class="cls-1" d="M211.35,81.53v-2.77h1.74v2.77h-1.74ZM211.35,95.2v-12.13h1.74v12.13h-1.74Z"/>
        <path class="cls-1" d="M216.01,95.2v-16.45h1.74v16.45h-1.74Z"/>
        <path class="cls-1" d="M224.58,89.14c0-3.68,2.46-6.31,6.36-6.31,3.56,0,6.09,2.06,6.09,5.67,0,.44-.05.81-.12,1.13h-10.68c.1,2.73,1.5,4.37,4.71,4.37,2.85,0,4.17-1.06,4.17-2.82v-.17h1.74v.17c0,2.53-2.5,4.27-5.89,4.27-3.9,0-6.38-2.46-6.38-6.31ZM226.23,88.55h9.16v-.37c0-2.55-1.62-3.9-4.47-3.9-3.14,0-4.57,1.62-4.69,4.27Z"/>
        <path class="cls-1" d="M244.15,95.2c-2.41,0-3.95-1.01-3.95-3.85v-6.78h-2.16v-1.5h2.16v-2.9h1.77v2.9h4.81v1.5h-4.81v6.87c0,1.69.83,2.16,2.6,2.16h2.21v1.6h-2.63Z"/>
        <path class="cls-1" d="M253.26,95.2v-16.45h7.14c4.93,0,8.08,3.19,8.08,8.22s-3.14,8.22-8.08,8.22h-7.14ZM255.03,80.35v13.26h5.38c4.17,0,6.24-2.16,6.24-6.63s-2.06-6.63-6.24-6.63h-5.38Z"/>
        <path class="cls-1" d="M270.82,81.53v-2.77h1.74v2.77h-1.74ZM270.82,95.2v-12.13h1.74v12.13h-1.74Z"/>
        <path class="cls-1" d="M275.49,95.2v-12.13h1.57v3.31h.12c.37-1.94,1.74-3.56,4.27-3.56,2.8,0,4.03,2.06,4.03,4.32v1.2h-1.74v-.93c0-2.06-.86-3.07-2.97-3.07-2.46,0-3.54,1.55-3.54,4.27v6.58h-1.74Z"/>
        <path class="cls-1" d="M286.88,89.14c0-3.68,2.46-6.31,6.36-6.31,3.56,0,6.09,2.06,6.09,5.67,0,.44-.05.81-.12,1.13h-10.68c.1,2.73,1.5,4.37,4.71,4.37,2.85,0,4.17-1.06,4.17-2.82v-.17h1.74v.17c0,2.53-2.5,4.27-5.89,4.27-3.9,0-6.38-2.46-6.38-6.31ZM288.53,88.55h9.16v-.37c0-2.55-1.62-3.9-4.47-3.9-3.14,0-4.57,1.62-4.69,4.27Z"/>
        <path class="cls-1" d="M301.02,89.14c0-3.68,2.53-6.31,6.41-6.31,3.39,0,6.04,2.01,6.04,4.94v.2h-1.72v-.15c0-2.16-1.57-3.39-4.35-3.39-3.24,0-4.64,1.74-4.64,4.71s1.4,4.71,4.64,4.71c2.77,0,4.35-1.23,4.35-3.39v-.15h1.72v.2c0,2.92-2.65,4.94-6.04,4.94-3.88,0-6.41-2.63-6.41-6.31Z"/>
        <path class="cls-1" d="M320.62,95.2c-2.41,0-3.95-1.01-3.95-3.85v-6.78h-2.16v-1.5h2.16v-2.9h1.77v2.9h4.81v1.5h-4.81v6.87c0,1.69.83,2.16,2.6,2.16h2.21v1.6h-2.63Z"/>
        <path class="cls-1" d="M325.16,81.53v-2.77h1.74v2.77h-1.74ZM325.16,95.2v-12.13h1.74v12.13h-1.74Z"/>
        <path class="cls-1" d="M329.19,89.14c0-3.68,2.63-6.31,6.58-6.31s6.6,2.63,6.6,6.31-2.63,6.31-6.6,6.31-6.58-2.63-6.58-6.31ZM340.66,89.14c0-2.92-1.55-4.74-4.89-4.74s-4.86,1.82-4.86,4.74,1.52,4.74,4.86,4.74,4.89-1.79,4.89-4.74Z"/>
        <path class="cls-1" d="M344.69,95.2v-12.13h1.57v3.81h.12c.42-2.06,2.14-4.05,5.16-4.05,3.41,0,5.11,2.43,5.11,5.3v7.07h-1.74v-6.83c0-2.5-1.2-3.95-3.98-3.95-2.95,0-4.49,1.79-4.49,4.91v5.87h-1.74Z"/>
        <path class="cls-1" d="M363.2,89.14c0-3.68,2.16-6.31,5.89-6.31,2.87,0,4.66,1.55,5.2,3.63h.12v-7.71h1.74v16.45h-1.6v-3.58h-.1c-.59,2.43-2.55,3.83-5.23,3.83-3.88,0-6.04-2.63-6.04-6.31ZM369.68,93.85c2.85,0,4.74-1.65,4.74-4.52v-.22c0-3-1.79-4.66-4.79-4.66-2.77,0-4.67,1.18-4.67,4.69s1.87,4.71,4.71,4.71Z"/>
        <path class="cls-1" d="M378.47,89.14c0-3.68,2.46-6.31,6.36-6.31,3.56,0,6.09,2.06,6.09,5.67,0,.44-.05.81-.12,1.13h-10.68c.1,2.73,1.5,4.37,4.71,4.37,2.85,0,4.17-1.06,4.17-2.82v-.17h1.74v.17c0,2.53-2.5,4.27-5.89,4.27-3.9,0-6.38-2.46-6.38-6.31ZM380.12,88.55h9.16v-.37c0-2.55-1.62-3.9-4.47-3.9-3.14,0-4.57,1.62-4.69,4.27Z"/>
        <path class="cls-1" d="M142.71,115.77v-14.85h-6.78v-1.6h15.27v1.6h-6.75v14.85h-1.74Z"/>
        <path class="cls-1" d="M152.95,115.77v-12.13h1.57v3.31h.12c.37-1.94,1.74-3.56,4.27-3.56,2.8,0,4.03,2.06,4.03,4.32v1.2h-1.74v-.93c0-2.06-.86-3.07-2.97-3.07-2.46,0-3.54,1.55-3.54,4.27v6.58h-1.74Z"/>
        <path class="cls-1" d="M164.32,112.92c0-1.99,1.64-2.85,3.9-3.09l5.77-.64v-.93c0-2.36-1.03-3.29-3.68-3.29s-3.98.93-3.98,3.07v.1h-1.74v-.1c0-2.55,2.11-4.64,5.84-4.64s5.25,2.11,5.25,4.79v7.59h-1.57v-3.27h-.12c-.71,2.23-2.85,3.51-5.67,3.51-2.38,0-4-1.13-4-3.09ZM168.72,114.67c2.95,0,5.28-1.3,5.28-4.22v-.1l-5.23.59c-1.82.17-2.7.61-2.7,1.87s.81,1.87,2.65,1.87Z"/>
        <path class="cls-1" d="M183.13,115.77l-5.79-12.13h1.89l4.91,10.41h.15l4.89-10.41h1.89l-5.79,12.13h-2.14Z"/>
        <path class="cls-1" d="M192.15,112.92c0-1.99,1.64-2.85,3.9-3.09l5.77-.64v-.93c0-2.36-1.03-3.29-3.68-3.29s-3.98.93-3.98,3.07v.1h-1.74v-.1c0-2.55,2.11-4.64,5.84-4.64s5.25,2.11,5.25,4.79v7.59h-1.57v-3.27h-.12c-.71,2.23-2.85,3.51-5.67,3.51-2.38,0-4-1.13-4-3.09ZM196.54,114.67c2.95,0,5.28-1.3,5.28-4.22v-.1l-5.23.59c-1.82.17-2.7.61-2.7,1.87s.81,1.87,2.65,1.87Z"/>
        <path class="cls-1" d="M206.31,110.74v-7.1h1.74v6.83c0,2.53,1.23,3.98,4.03,3.98,2.97,0,4.52-1.79,4.52-4.91v-5.89h1.74v12.13h-1.57v-3.78h-.12c-.42,2.06-2.16,4.03-5.18,4.03-3.46,0-5.16-2.41-5.16-5.28Z"/>
        <path class="cls-1" d="M220.02,115.77l5.52-6.04v-.12l-5.52-5.97h2.11l4.74,5.03h.12l4.71-5.03h2.09l-5.55,5.92v.12l5.55,6.09h-2.11l-4.76-5.13h-.1l-4.71,5.13h-2.09Z"/>
        <path class="cls-1" d="M239.39,109.71c0-3.68,2.46-6.31,6.36-6.31,3.56,0,6.09,2.06,6.09,5.67,0,.44-.05.81-.12,1.13h-10.68c.1,2.73,1.5,4.37,4.71,4.37,2.85,0,4.17-1.06,4.17-2.82v-.17h1.74v.17c0,2.53-2.5,4.27-5.89,4.27-3.9,0-6.38-2.46-6.38-6.31ZM241.04,109.12h9.16v-.37c0-2.55-1.62-3.9-4.47-3.9-3.14,0-4.57,1.62-4.69,4.27Z"/>
        <path class="cls-1" d="M254.15,115.77v-12.13h1.57v3.81h.12c.42-2.06,2.14-4.05,5.16-4.05,3.41,0,5.11,2.43,5.11,5.3v7.07h-1.74v-6.83c0-2.5-1.2-3.95-3.98-3.95-2.95,0-4.49,1.79-4.49,4.91v5.87h-1.74Z"/>
        <path class="cls-1" d="M272.12,115.77l7.44-16.45h2.43l7.46,16.45h-1.96l-2.21-4.84h-9.04l-2.21,4.84h-1.92ZM276.96,109.36h7.61l-2.85-6.24-.91-2.14h-.15l-.88,2.14-2.82,6.24Z"/>
        <path class="cls-1" d="M291.06,115.77v-16.45h1.74v16.45h-1.74Z"/>
        <path class="cls-1" d="M300.53,115.77c-2.41,0-3.95-1.01-3.95-3.85v-6.78h-2.16v-1.5h2.16v-2.9h1.77v2.9h4.81v1.5h-4.81v6.87c0,1.69.83,2.16,2.6,2.16h2.21v1.6h-2.63Z"/>
        <path class="cls-1" d="M305.08,102.1v-2.77h1.74v2.77h-1.74ZM305.08,115.77v-12.13h1.74v12.13h-1.74Z"/>
        <path class="cls-1" d="M314.55,115.77c-2.41,0-3.95-1.01-3.95-3.85v-6.78h-2.16v-1.5h2.16v-2.9h1.77v2.9h4.81v1.5h-4.81v6.87c0,1.69.83,2.16,2.6,2.16h2.21v1.6h-2.63Z"/>
        <path class="cls-1" d="M319.02,110.74v-7.1h1.74v6.83c0,2.53,1.23,3.98,4.03,3.98,2.97,0,4.52-1.79,4.52-4.91v-5.89h1.74v12.13h-1.57v-3.78h-.12c-.42,2.06-2.16,4.03-5.18,4.03-3.46,0-5.16-2.41-5.16-5.28Z"/>
        <path class="cls-1" d="M333.17,109.71c0-3.68,2.16-6.31,5.89-6.31,2.87,0,4.66,1.55,5.2,3.63h.12v-7.71h1.74v16.45h-1.6v-3.58h-.1c-.59,2.43-2.55,3.83-5.23,3.83-3.88,0-6.04-2.63-6.04-6.31ZM339.65,114.42c2.85,0,4.74-1.65,4.74-4.52v-.22c0-3-1.79-4.66-4.79-4.66-2.77,0-4.67,1.18-4.67,4.69s1.87,4.71,4.71,4.71Z"/>
        <path class="cls-1" d="M348.44,109.71c0-3.68,2.46-6.31,6.36-6.31,3.56,0,6.09,2.06,6.09,5.67,0,.44-.05.81-.12,1.13h-10.68c.1,2.73,1.5,4.37,4.71,4.37,2.85,0,4.17-1.06,4.17-2.82v-.17h1.74v.17c0,2.53-2.5,4.27-5.89,4.27-3.9,0-6.38-2.46-6.38-6.31ZM350.09,109.12h9.16v-.37c0-2.55-1.62-3.9-4.47-3.9-3.14,0-4.57,1.62-4.69,4.27Z"/>
      </g>
    </g>
  </g>
</svg>