<?xml version="1.0" encoding="UTF-8"?>
<svg id="Calque_2" data-name="Calque 2" xmlns="http://www.w3.org/2000/svg" viewBox="0 0 406.84 97.15">
  <defs>
    <style>
      .cls-1 {
        fill: #1d1d1b;
      }
    </style>
  </defs>
  <g id="Calque_1-2" data-name="Calque 1">
    <g>
      <g>
        <polygon class="cls-1" points="48.57 0 48.57 48.57 0 97.14 0 0 48.57 0"/>
        <polygon class="cls-1" points="48.57 97.15 48.57 48.57 97.15 97.15 48.57 97.15"/>
        <polygon class="cls-1" points="97.15 48.57 48.57 0 97.15 0 97.15 48.57"/>
      </g>
      <g>
        <path class="cls-1" d="M327.79,18l-11.68,17.89-5.12,8.21h-1l-5.11-8.21-.26-.4h-16.71l15.51,23.4v20.26h13.78v-20.17l27.56-40.98h-16.97Z"/>
        <path class="cls-1" d="M347.98,79.15V18h33.77c15.06,0,23.64,6.66,23.64,18.34,0,9.95-5.75,15.88-17.25,16.98v.73c5.48,1.46,7.58,4.38,9.86,8.67l8.85,16.43h-15.88l-8.4-15.88c-2.46-4.75-4.75-6.3-11.86-6.3h-9.04v22.18h-13.69ZM361.67,46.66h19.99c6.48,0,9.4-1.83,9.4-8.21,0-6.02-2.92-8.12-9.4-8.12h-19.99v16.34Z"/>
        <path class="cls-1" d="M163.07,18h-19.53l-26.74,61.15h15.33l20.63-48.64h1l3.74,9.49,5.75,13.32h-9.85v12.32h15.15l5.75,13.51h15.69l-26.92-61.15Z"/>
        <path class="cls-1" d="M193.18,79.15V18h13.69v48.83h36.41v12.32h-50.1Z"/>
        <path class="cls-1" d="M251.62,79.15V30.32h-22.72v-12.32h59.14v12.32h-22.72v48.83h-13.69Z"/>
      </g>
    </g>
  </g>
</svg>